<svg width="30" height="30" viewBox="0 0 30 30" fill="none" xmlns="http://www.w3.org/2000/svg">
<path d="M19.6875 20.625C25.3828 20.625 30 16.0078 30 10.3125C30 4.61719 25.3828 0 19.6875 0C13.9922 0 9.375 4.61719 9.375 10.3125C9.375 11.4082 9.54492 12.4688 9.86133 13.459L0.410156 22.9102C0.146484 23.1738 0 23.5312 0 23.9062V28.5938C0 29.373 0.626953 30 1.40625 30H6.09375C6.87305 30 7.5 29.373 7.5 28.5938V26.25H9.84375C10.623 26.25 11.25 25.623 11.25 24.8438V22.5H13.5938C13.9688 22.5 14.3262 22.3535 14.5898 22.0898L16.541 20.1387C17.5312 20.4551 18.5918 20.625 19.6875 20.625ZM22.0312 5.625C22.6529 5.625 23.249 5.87193 23.6885 6.31147C24.1281 6.75101 24.375 7.34715 24.375 7.96875C24.375 8.59035 24.1281 9.18649 23.6885 9.62603C23.249 10.0656 22.6529 10.3125 22.0312 10.3125C21.4096 10.3125 20.8135 10.0656 20.374 9.62603C19.9344 9.18649 19.6875 8.59035 19.6875 7.96875C19.6875 7.34715 19.9344 6.75101 20.374 6.31147C20.8135 5.87193 21.4096 5.625 22.0312 5.625Z" fill="#FF360D"/>
</svg>
