<svg width="71" height="70" viewBox="0 0 71 70" fill="none" xmlns="http://www.w3.org/2000/svg">
<path d="M5.64673 1.39091C5.98968 0.431126 6.74418 -0.119571 7.51011 0.0220369L35.4951 4.83671L63.4802 0.0220369C64.2461 -0.103837 65.0006 0.44686 65.3435 1.39091L70.1106 14.5133C71.1395 17.3297 70.042 20.744 67.8471 21.6094L49.1676 28.9573C47.5785 29.5866 45.8752 28.6583 45.0292 26.7073L35.4951 4.83671L25.961 26.7073C25.1151 28.6583 23.4117 29.5866 21.8227 28.9573L3.15459 21.6094C0.948259 20.744 -0.137762 17.3297 0.8911 14.5133L5.64673 1.39091ZM35.6209 14.9066L41.8969 29.2877C43.6003 33.1898 46.9955 35.0464 50.185 33.7877L64.7605 28.0604V54.3366C64.7605 57.7981 63.0457 60.8191 60.5993 61.6687L37.2671 69.6932C36.101 70.1023 34.8778 70.1023 33.7232 69.6932L10.3909 61.6687C7.94452 60.8033 6.22975 57.7824 6.22975 54.3208V28.0447L20.8167 33.7877C23.9948 35.0464 27.4014 33.1898 29.1048 29.2877L35.3694 14.9066H35.6209Z" fill="#FF360D"/>
</svg>
