<svg width="41" height="40" viewBox="0 0 41 40" fill="none" xmlns="http://www.w3.org/2000/svg">
<path d="M3.44099 0.794808C3.63696 0.246358 4.0681 -0.0683264 4.50577 0.0125925L20.4972 2.76383L36.4887 0.0125925C36.9263 -0.0593354 37.3575 0.255349 37.5534 0.794808L40.2775 8.29329C40.8654 9.90268 40.2383 11.8537 38.9841 12.3482L28.31 16.547C27.402 16.9067 26.4287 16.3762 25.9453 15.2613L20.4972 2.76383L15.0492 15.2613C14.5658 16.3762 13.5924 16.9067 12.6844 16.547L2.01691 12.3482C0.756148 11.8537 0.135565 9.90268 0.723486 8.29329L3.44099 0.794808ZM20.5691 8.51806L24.1554 16.7358C25.1287 18.9656 27.0689 20.0265 28.8914 19.3072L37.2203 16.0345V31.0495C37.2203 33.0275 36.2404 34.7538 34.8425 35.2393L21.5097 39.8247C20.8434 40.0584 20.1445 40.0584 19.4847 39.8247L6.15195 35.2393C4.75401 34.7448 3.77414 33.0185 3.77414 31.0405V16.0255L12.1095 19.3072C13.9256 20.0265 15.8722 18.9656 16.8456 16.7358L20.4254 8.51806H20.5691Z" fill="#FF360D"/>
</svg>
