<svg width="51" height="50" viewBox="0 0 51 50" fill="none" xmlns="http://www.w3.org/2000/svg">
<path d="M4.17623 0.99351C4.4212 0.307947 4.96013 -0.085408 5.50722 0.0157406L25.4965 3.45479L45.4858 0.0157406C46.0329 -0.0741692 46.5718 0.319186 46.8168 0.99351L50.2219 10.3666C50.9568 12.3783 50.1729 14.8172 48.6051 15.4353L35.2625 20.6838C34.1275 21.1333 32.9109 20.4702 32.3066 19.0766L25.4965 3.45479L18.6864 19.0766C18.0822 20.4702 16.8655 21.1333 15.7305 20.6838L2.39614 15.4353C0.820185 14.8172 0.044456 12.3783 0.779357 10.3666L4.17623 0.99351ZM25.5863 10.6476L30.0692 20.9198C31.2859 23.707 33.7111 25.0332 35.9893 24.1341L46.4004 20.0432V38.8118C46.4004 41.2844 45.1755 43.4422 43.4281 44.0491L26.7622 49.7808C25.9293 50.0731 25.0556 50.0731 24.2309 49.7808L7.56494 44.0491C5.81751 43.431 4.59268 41.2731 4.59268 38.8006V20.0319L15.0119 24.1341C17.282 25.0332 19.7153 23.707 20.932 20.9198L25.4067 10.6476H25.5863Z" fill="#FF360D"/>
</svg>
