<svg width="70" height="70" viewBox="0 0 70 70" fill="none" xmlns="http://www.w3.org/2000/svg">
<path d="M69.9816 34.9248C69.9816 37.3853 68.1586 39.3126 66.0924 39.3126H62.2032L62.2883 61.2107C62.3126 66.0633 58.8244 70 54.5098 70H15.569C11.2787 70 7.79059 66.0769 7.79059 61.2517V39.3126H3.88922C1.70153 39.3126 0 37.3989 0 34.9248C0 33.6946 0.364614 32.6011 1.21538 31.6442L32.3778 1.09354C33.2285 0.136692 34.2008 0 35.0516 0C35.9024 0 36.8747 0.273384 37.6039 0.956844L68.6447 31.6442C69.617 32.6011 70.1032 33.6946 69.9816 34.9248ZM42.7814 30.619C42.7814 28.2988 41.9619 26.0737 40.5032 24.433C39.0444 22.7924 37.0659 21.8707 35.003 21.8707C32.94 21.8707 30.9615 22.7924 29.5028 24.433C28.0441 26.0737 27.2245 28.2988 27.2245 30.619C27.2245 32.9392 28.0441 35.1644 29.5028 36.805C30.9615 38.4456 32.94 39.3673 35.003 39.3673C37.0659 39.3673 39.0444 38.4456 40.5032 36.805C41.9619 35.1644 42.7814 32.9392 42.7814 30.619ZM31.1138 43.7415C25.7418 43.7415 21.3907 48.635 21.3907 54.6768C21.3907 55.8797 22.2658 56.8639 23.3353 56.8639H46.6706C47.7402 56.8639 48.6152 55.8797 48.6152 54.6768C48.6152 48.635 44.2642 43.7415 38.8922 43.7415H31.1138Z" fill="#FF360D"/>
</svg>
