<svg width="43" height="31" viewBox="0 0 43 31" fill="none" xmlns="http://www.w3.org/2000/svg">
<path d="M3.40679 1.56054C3.61513 1.15328 4.07347 0.9196 4.53875 0.979688L21.539 3.02269L38.5392 0.979688C39.0045 0.926276 39.4629 1.15995 39.6712 1.56054L42.5671 7.12872C43.1921 8.32381 42.5254 9.7726 41.1921 10.1398L29.8447 13.2577C28.8794 13.5248 27.8446 13.1309 27.3308 12.303L21.539 3.02269L15.7472 12.303C15.2334 13.1309 14.1986 13.5248 13.2333 13.2577L1.89288 10.1398C0.55258 9.7726 -0.107152 8.32381 0.517857 7.12872L3.40679 1.56054ZM21.6154 7.29563L25.4279 13.3979C26.4627 15.0537 28.5252 15.8415 30.4627 15.3074L39.317 12.8772V24.0269C39.317 25.4957 38.2754 26.7776 36.7892 27.1381L22.6154 30.5431C21.9071 30.7167 21.164 30.7167 20.4626 30.5431L6.28878 27.1381C4.80264 26.7709 3.76096 25.489 3.76096 24.0202V12.8705L12.6222 15.3074C14.5528 15.8415 16.6223 15.0537 17.657 13.3979L21.4626 7.29563H21.6154Z" fill="#FF360D"/>
</svg>
