<svg width="43" height="31" viewBox="0 0 43 31" fill="none" xmlns="http://www.w3.org/2000/svg">
<path d="M7.56379 0.970337C6.25708 0.970337 5.20138 1.79993 5.20138 2.82677V13.9654H12.2886V12.109C12.2886 10.0611 14.4074 8.39608 17.0134 8.39608H33.5503V2.82677C33.5503 1.79993 32.4946 0.970337 31.1879 0.970337H7.56379ZM17.0134 10.2525C15.7067 10.2525 14.651 11.0821 14.651 12.109V13.9654H21.7382C24.3443 13.9654 26.4631 15.6304 26.4631 17.6783V25.104H40.6375C41.9442 25.104 42.9999 24.2744 42.9999 23.2476V12.109C42.9999 11.0821 41.9442 10.2525 40.6375 10.2525H17.0134ZM34.7315 13.9654H37.0939C37.7436 13.9654 38.2751 14.3831 38.2751 14.8936V16.75C38.2751 17.2606 37.7436 17.6783 37.0939 17.6783H34.7315C34.0818 17.6783 33.5503 17.2606 33.5503 16.75V14.8936C33.5503 14.3831 34.0818 13.9654 34.7315 13.9654ZM2.83897 15.8218C1.53226 15.8218 0.476562 16.6514 0.476562 17.6783V18.4324L11.9269 25.0982C12.0302 25.1562 12.1557 25.191 12.2886 25.191C12.4215 25.191 12.547 25.1562 12.6504 25.0982L24.1007 18.4324V17.6783C24.1007 16.6514 23.045 15.8218 21.7382 15.8218H2.83897ZM24.1007 20.7414L14.0604 26.5891C13.551 26.885 12.9309 27.0475 12.2886 27.0475C11.6463 27.0475 11.0336 26.885 10.5168 26.5891L0.476562 20.7414V28.8169C0.476562 29.8437 1.53226 30.6733 2.83897 30.6733H21.7382C23.045 30.6733 24.1007 29.8437 24.1007 28.8169V20.7414Z" fill="#FF360D"/>
</svg>
