<svg width="45" height="45" viewBox="0 0 45 45" fill="none" xmlns="http://www.w3.org/2000/svg">
<path d="M3.30861 0.894159C3.52908 0.277153 4.01411 -0.0768672 4.5065 0.0141666L22.4969 3.10931L40.4872 0.0141666C40.9796 -0.0667523 41.4647 0.287267 41.6851 0.894159L44.7497 9.32995C45.4111 11.1405 44.7056 13.3354 43.2946 13.8918L31.2863 18.6154C30.2648 19.02 29.1698 18.4232 28.6259 17.169L22.4969 3.10931L16.3678 17.169C15.824 18.4232 14.729 19.02 13.7075 18.6154L1.70652 13.8918C0.288166 13.3354 -0.40999 11.1405 0.251421 9.32995L3.30861 0.894159ZM22.5777 9.58282L26.6123 18.8278C27.7073 21.3363 29.89 22.5298 31.9403 21.7207L41.3103 18.0388V34.9307C41.3103 37.1559 40.208 39.098 38.6353 39.6442L23.636 44.8028C22.8864 45.0657 22.1 45.0657 21.3578 44.8028L6.35845 39.6442C4.78576 39.0879 3.68341 37.1458 3.68341 34.9205V18.0287L13.0607 21.7207C15.1038 22.5298 17.2938 21.3363 18.3888 18.8278L22.416 9.58282H22.5777Z" fill="#FF360D"/>
</svg>
