<svg width="242" height="221" viewBox="0 0 242 221" fill="none" xmlns="http://www.w3.org/2000/svg">
<path d="M13.915 82.875H228.085C235.761 82.875 242 75.7529 242 66.9906C242 63.8396 241.168 60.775 239.656 58.1852L211.069 9.23711C207.704 3.45312 202.07 0 195.982 0H46.0178C39.9678 0 34.2959 3.45312 30.9306 9.23711L2.34437 58.142C0.831875 60.775 0 63.8397 0 66.9475C0 75.7529 6.23906 82.875 13.915 82.875ZM24.2 96.6875V165.75V200.281C24.2 211.72 32.3297 221 42.35 221H127.05C137.07 221 145.2 211.72 145.2 200.281V165.75V96.6875H121V165.75H48.4V96.6875H24.2ZM193.6 96.6875V207.188C193.6 214.828 199.007 221 205.7 221C212.393 221 217.8 214.828 217.8 207.188V96.6875H193.6Z" fill="#FF360D"/>
</svg>
