<svg width="55" height="55" viewBox="0 0 55 55" fill="none" xmlns="http://www.w3.org/2000/svg">
<path d="M9.16667 0C7.47656 0 6.11111 1.53613 6.11111 3.4375V24.0625H15.2778V20.625C15.2778 16.833 18.0182 13.75 21.3889 13.75H42.7778V3.4375C42.7778 1.53613 41.4123 0 39.7222 0H9.16667ZM21.3889 17.1875C19.6988 17.1875 18.3333 18.7236 18.3333 20.625V24.0625H27.5C30.8707 24.0625 33.6111 27.1455 33.6111 30.9375V44.6875H51.9444C53.6345 44.6875 55 43.1514 55 41.25V20.625C55 18.7236 53.6345 17.1875 51.9444 17.1875H21.3889ZM44.3056 24.0625H47.3611C48.2014 24.0625 48.8889 24.8359 48.8889 25.7812V29.2188C48.8889 30.1641 48.2014 30.9375 47.3611 30.9375H44.3056C43.4653 30.9375 42.7778 30.1641 42.7778 29.2188V25.7812C42.7778 24.8359 43.4653 24.0625 44.3056 24.0625ZM3.05556 27.5C1.36545 27.5 0 29.0361 0 30.9375V32.334L14.8099 44.6768C14.9436 44.7842 15.1059 44.8486 15.2778 44.8486C15.4497 44.8486 15.612 44.7842 15.7457 44.6768L30.5556 32.334V30.9375C30.5556 29.0361 29.1901 27.5 27.5 27.5H3.05556ZM30.5556 36.6094L17.5694 47.4375C16.9106 47.9854 16.1085 48.2861 15.2778 48.2861C14.447 48.2861 13.6545 47.9854 12.9861 47.4375L0 36.6094V51.5625C0 53.4639 1.36545 55 3.05556 55H27.5C29.1901 55 30.5556 53.4639 30.5556 51.5625V36.6094Z" fill="#FF360D"/>
</svg>
