<svg width="71" height="70" viewBox="0 0 71 70" fill="none" xmlns="http://www.w3.org/2000/svg">
<path d="M70.5 41.7656V42.5V62.5C70.5 66.6406 68.1484 70 65.25 70H56.5H49.5H7.5C5.56406 70 4 67.7656 4 65C4 62.2344 5.56406 60 7.5 60H49.5V52.5H11C9.06406 52.5 7.5 50.2656 7.5 47.5V29.2812L4.19687 28.4375C2.05312 27.8906 0.5 25.2344 0.5 22.1406C0.5 20.75 0.817187 19.4062 1.39687 18.2969L5.29063 10.875C8.88906 4.03125 14.5219 0 20.5047 0C23.4578 0 26.3672 0.984375 29.0141 2.875L64.6922 28.3594C68.2578 30.8906 70.5 36.0938 70.5 41.7656ZM49.5 42.5V40L14.5 31.0781V42.5H49.5Z" fill="#FF360D"/>
</svg>
