<svg width="71" height="70" viewBox="0 0 71 70" fill="none" xmlns="http://www.w3.org/2000/svg">
<path d="M12.1667 0C10.0156 0 8.27778 1.95508 8.27778 4.375V30.625H19.9444V26.25C19.9444 21.4238 23.4323 17.5 27.7222 17.5H54.9444V4.375C54.9444 1.95508 53.2066 0 51.0556 0H12.1667ZM27.7222 21.875C25.5712 21.875 23.8333 23.8301 23.8333 26.25V30.625H35.5C39.7899 30.625 43.2778 34.5488 43.2778 39.375V56.875H66.6111C68.7622 56.875 70.5 54.9199 70.5 52.5V26.25C70.5 23.8301 68.7622 21.875 66.6111 21.875H27.7222ZM56.8889 30.625H60.7778C61.8472 30.625 62.7222 31.6094 62.7222 32.8125V37.1875C62.7222 38.3906 61.8472 39.375 60.7778 39.375H56.8889C55.8194 39.375 54.9444 38.3906 54.9444 37.1875V32.8125C54.9444 31.6094 55.8194 30.625 56.8889 30.625ZM4.38889 35C2.23785 35 0.5 36.9551 0.5 39.375V41.1523L19.349 56.8613C19.5191 56.998 19.7257 57.0801 19.9444 57.0801C20.1632 57.0801 20.3698 56.998 20.5399 56.8613L39.3889 41.1523V39.375C39.3889 36.9551 37.651 35 35.5 35H4.38889ZM39.3889 46.5938L22.8611 60.375C22.0226 61.0723 21.0017 61.4551 19.9444 61.4551C18.8872 61.4551 17.8785 61.0723 17.0278 60.375L0.5 46.5938V65.625C0.5 68.0449 2.23785 70 4.38889 70H35.5C37.651 70 39.3889 68.0449 39.3889 65.625V46.5938Z" fill="#FF360D"/>
</svg>
