<svg width="70" height="70" viewBox="0 0 70 70" fill="none" xmlns="http://www.w3.org/2000/svg">
<path d="M5.14673 1.39091C5.48968 0.431126 6.24418 -0.119571 7.01011 0.0220369L34.9951 4.83671L62.9802 0.0220369C63.7461 -0.103837 64.5006 0.44686 64.8435 1.39091L69.6106 14.5133C70.6395 17.3297 69.542 20.744 67.3471 21.6094L48.6676 28.9573C47.0785 29.5866 45.3752 28.6583 44.5292 26.7073L34.9951 4.83671L25.461 26.7073C24.6151 28.6583 22.9117 29.5866 21.3227 28.9573L2.65459 21.6094C0.448259 20.744 -0.637762 17.3297 0.3911 14.5133L5.14673 1.39091ZM35.1209 14.9066L41.3969 29.2877C43.1003 33.1898 46.4955 35.0464 49.685 33.7877L64.2605 28.0604V54.3366C64.2605 57.7981 62.5457 60.8191 60.0993 61.6687L36.7671 69.6932C35.601 70.1023 34.3778 70.1023 33.2232 69.6932L9.89092 61.6687C7.44452 60.8033 5.72975 57.7824 5.72975 54.3208V28.0447L20.3167 33.7877C23.4948 35.0464 26.9014 33.1898 28.6048 29.2877L34.8694 14.9066H35.1209Z" fill="#FF360D"/>
</svg>
