<svg width="71" height="70" viewBox="0 0 71 70" fill="none" xmlns="http://www.w3.org/2000/svg">
<path d="M50.1409 2.56607L43.5165 9.18995L61.3093 26.9814L67.9337 20.3575C71.3554 16.9361 71.3554 11.3933 67.9337 7.97192L62.5411 2.56607C59.1195 -0.855356 53.5763 -0.855356 50.1546 2.56607H50.1409ZM40.4233 12.2829L8.51949 44.198C7.09607 45.6213 6.05588 47.3867 5.48103 49.3164L0.635919 65.7803C0.29375 66.9436 0.608546 68.189 1.45712 69.0375C2.3057 69.886 3.5512 70.2008 4.70089 69.8723L21.1661 65.0276C23.0959 64.4528 24.8615 63.4127 26.2849 61.9894L58.2161 30.0743L40.4233 12.2829Z" fill="#FF360D"/>
</svg>
