<svg width="40" height="40" viewBox="0 0 40 40" fill="none" xmlns="http://www.w3.org/2000/svg">
<path d="M2.94099 0.794808C3.13696 0.246358 3.5681 -0.0683264 4.00577 0.0125925L19.9972 2.76383L35.9887 0.0125925C36.4263 -0.0593354 36.8575 0.255349 37.0534 0.794808L39.7775 8.29329C40.3654 9.90268 39.7383 11.8537 38.4841 12.3482L27.81 16.547C26.902 16.9067 25.9287 16.3762 25.4453 15.2613L19.9972 2.76383L14.5492 15.2613C14.0658 16.3762 13.0924 16.9067 12.1844 16.547L1.51691 12.3482C0.256148 11.8537 -0.364435 9.90268 0.223486 8.29329L2.94099 0.794808ZM20.0691 8.51806L23.6554 16.7358C24.6287 18.9656 26.5689 20.0265 28.3914 19.3072L36.7203 16.0345V31.0495C36.7203 33.0275 35.7404 34.7538 34.3425 35.2393L21.0097 39.8247C20.3434 40.0584 19.6445 40.0584 18.9847 39.8247L5.65195 35.2393C4.25401 34.7448 3.27414 33.0185 3.27414 31.0405V16.0255L11.6095 19.3072C13.4256 20.0265 15.3722 18.9656 16.3456 16.7358L19.9254 8.51806H20.0691Z" fill="#FF360D"/>
</svg>
