<svg width="71" height="70" viewBox="0 0 71 70" fill="none" xmlns="http://www.w3.org/2000/svg">
<path d="M46.7778 60C51.8212 53.6406 54.9444 44.7969 54.9444 35C54.9444 15.6719 42.7552 0 27.7222 0C12.6892 0 0.5 15.6719 0.5 35C0.5 54.3281 12.6892 70 27.7222 70H66.6111C68.7622 70 70.5 67.7656 70.5 65C70.5 62.2344 68.7622 60 66.6111 60H46.7778ZM27.7222 20C30.8164 20 33.7839 21.5804 35.9718 24.3934C38.1597 27.2064 39.3889 31.0218 39.3889 35C39.3889 38.9782 38.1597 42.7936 35.9718 45.6066C33.7839 48.4196 30.8164 50 27.7222 50C24.628 50 21.6606 48.4196 19.4726 45.6066C17.2847 42.7936 16.0556 38.9782 16.0556 35C16.0556 31.0218 17.2847 27.2064 19.4726 24.3934C21.6606 21.5804 24.628 20 27.7222 20ZM35.5 35C35.5 32.3478 34.6806 29.8043 33.2219 27.9289C31.7633 26.0536 29.785 25 27.7222 25C25.6594 25 23.6811 26.0536 22.2225 27.9289C20.7639 29.8043 19.9444 32.3478 19.9444 35C19.9444 37.6522 20.7639 40.1957 22.2225 42.0711C23.6811 43.9464 25.6594 45 27.7222 45C29.785 45 31.7633 43.9464 33.2219 42.0711C34.6806 40.1957 35.5 37.6522 35.5 35Z" fill="#FF360D"/>
</svg>
