<svg width="71" height="70" viewBox="0 0 71 70" fill="none" xmlns="http://www.w3.org/2000/svg">
<path d="M43.1562 27.5898C43.1562 25.2109 44.4141 23.0508 45.877 21.1641C47.5996 18.9355 48.625 16.1465 48.625 13.125C48.625 5.87891 42.7461 0 35.5 0C28.2539 0 22.375 5.87891 22.375 13.125C22.375 16.1465 23.4004 18.9355 25.123 21.1641C26.5859 23.0508 27.8438 25.2109 27.8438 27.5898C27.8438 31.6777 24.5215 35 20.4336 35H15.8125C7.34961 35 0.5 41.8496 0.5 50.3125C0.5 53.1699 2.33203 55.6035 4.875 56.5059V63.4375C4.875 67.0605 7.81445 70 11.4375 70H59.5625C63.1855 70 66.125 67.0605 66.125 63.4375V56.5059C68.668 55.6035 70.5 53.1699 70.5 50.3125C70.5 41.8496 63.6504 35 55.1875 35H50.5664C46.4785 35 43.1562 31.6777 43.1562 27.5898ZM57.375 56.875V61.25H13.625V56.875H57.375Z" fill="#FF360D"/>
</svg>
