<svg width="35" height="25" viewBox="0 0 35 25" fill="none" xmlns="http://www.w3.org/2000/svg">
<path d="M3.10863 1.38305C3.2753 1.05724 3.64198 0.870299 4.0142 0.918369L17.6144 2.55277L31.2146 0.918369C31.5868 0.87564 31.9535 1.06258 32.1202 1.38305L34.4369 5.8376C34.9369 6.79367 34.4035 7.9527 33.3369 8.24647L24.2589 10.7408C23.4867 10.9544 22.6589 10.6393 22.2478 9.97701L17.6144 2.55277L12.981 9.97701C12.5699 10.6393 11.7421 10.9544 10.9699 10.7408L1.89751 8.24647C0.825267 7.9527 0.297482 6.79367 0.797489 5.8376L3.10863 1.38305ZM17.6755 5.97112L20.7256 10.853C21.5533 12.1776 23.2034 12.8078 24.7534 12.3805L31.8368 10.4363V19.3561C31.8368 20.5312 31.0035 21.5567 29.8146 21.8451L18.4755 24.5691C17.9089 24.708 17.3144 24.708 16.7533 24.5691L5.41422 21.8451C4.22532 21.5513 3.39197 20.5258 3.39197 19.3508V10.431L10.481 12.3805C12.0254 12.8078 13.681 12.1776 14.5088 10.853L17.5533 5.97112H17.6755Z" fill="#FF360D"/>
</svg>
