<svg width="50" height="50" viewBox="0 0 50 50" fill="none" xmlns="http://www.w3.org/2000/svg">
<path d="M8.33333 0C6.79687 0 5.55556 1.39648 5.55556 3.125V21.875H13.8889V18.75C13.8889 15.3027 16.3802 12.5 19.4444 12.5H38.8889V3.125C38.8889 1.39648 37.6476 0 36.1111 0H8.33333ZM19.4444 15.625C17.908 15.625 16.6667 17.0215 16.6667 18.75V21.875H25C28.0642 21.875 30.5556 24.6777 30.5556 28.125V40.625H47.2222C48.7587 40.625 50 39.2285 50 37.5V18.75C50 17.0215 48.7587 15.625 47.2222 15.625H19.4444ZM40.2778 21.875H43.0556C43.8194 21.875 44.4444 22.5781 44.4444 23.4375V26.5625C44.4444 27.4219 43.8194 28.125 43.0556 28.125H40.2778C39.5139 28.125 38.8889 27.4219 38.8889 26.5625V23.4375C38.8889 22.5781 39.5139 21.875 40.2778 21.875ZM2.77778 25C1.24132 25 0 26.3965 0 28.125V29.3945L13.4635 40.6152C13.5851 40.7129 13.7326 40.7715 13.8889 40.7715C14.0451 40.7715 14.1927 40.7129 14.3142 40.6152L27.7778 29.3945V28.125C27.7778 26.3965 26.5365 25 25 25H2.77778ZM27.7778 33.2812L15.9722 43.125C15.3733 43.623 14.6441 43.8965 13.8889 43.8965C13.1337 43.8965 12.4132 43.623 11.8056 43.125L0 33.2812V46.875C0 48.6035 1.24132 50 2.77778 50H25C26.5365 50 27.7778 48.6035 27.7778 46.875V33.2812Z" fill="#FF360D"/>
</svg>
