<svg width="60" height="42" viewBox="0 0 60 42" fill="none" xmlns="http://www.w3.org/2000/svg">
<path d="M4.43327 0.915397C4.72494 0.345226 5.36662 0.018079 6.01802 0.102203L29.8184 2.9624L53.6187 0.102203C54.2701 0.027426 54.9118 0.354573 55.2035 0.915397L59.2577 8.71085C60.1327 10.384 59.1994 12.4123 57.3327 12.9264L41.4463 17.2915C40.0949 17.6653 38.6463 17.1139 37.9268 15.9548L29.8184 2.9624L21.7099 15.9548C20.9905 17.1139 19.5418 17.6653 18.1904 17.2915L2.3138 12.9264C0.437382 12.4123 -0.486243 10.384 0.38877 8.71085L4.43327 0.915397ZM29.9253 8.94453L35.2629 17.4877C36.7115 19.8058 39.5991 20.9088 42.3116 20.161L54.7076 16.7587V32.3683C54.7076 34.4246 53.2493 36.2193 51.1687 36.724L31.3253 41.491C30.3337 41.734 29.2934 41.734 28.3114 41.491L8.46806 36.724C6.38747 36.2099 4.92911 34.4153 4.92911 32.3589V16.7493L17.3349 20.161C20.0377 20.9088 22.9349 19.8058 24.3836 17.4877L29.7114 8.94453H29.9253Z" fill="#FF360D"/>
</svg>
