<svg width="50" height="50" viewBox="0 0 50 50" fill="none" xmlns="http://www.w3.org/2000/svg">
<path d="M3.67623 0.99351C3.9212 0.307947 4.46013 -0.085408 5.00722 0.0157406L24.9965 3.45479L44.9858 0.0157406C45.5329 -0.0741692 46.0718 0.319186 46.3168 0.99351L49.7219 10.3666C50.4568 12.3783 49.6729 14.8172 48.1051 15.4353L34.7625 20.6838C33.6275 21.1333 32.4109 20.4702 31.8066 19.0766L24.9965 3.45479L18.1864 19.0766C17.5822 20.4702 16.3655 21.1333 15.2305 20.6838L1.89614 15.4353C0.320185 14.8172 -0.455544 12.3783 0.279357 10.3666L3.67623 0.99351ZM25.0863 10.6476L29.5692 20.9198C30.7859 23.707 33.2111 25.0332 35.4893 24.1341L45.9004 20.0432V38.8118C45.9004 41.2844 44.6755 43.4422 42.9281 44.0491L26.2622 49.7808C25.4293 50.0731 24.5556 50.0731 23.7309 49.7808L7.06494 44.0491C5.31751 43.431 4.09268 41.2731 4.09268 38.8006V20.0319L14.5119 24.1341C16.782 25.0332 19.2153 23.707 20.432 20.9198L24.9067 10.6476H25.0863Z" fill="#FF360D"/>
</svg>
